<svg width="32" height="10" viewBox="0 0 32 10" fill="none" xmlns="http://www.w3.org/2000/svg">
<path fill-rule="evenodd" clip-rule="evenodd" d="M0 4.50063C0 4.36802 0.052678 4.24085 0.146446 4.14708C0.240214 4.05331 0.367392 4.00063 0.5 4.00063H30.293L27.146 0.854632C27.0521 0.760745 26.9994 0.633407 26.9994 0.500632C26.9994 0.367856 27.0521 0.240518 27.146 0.146631C27.2399 0.0527448 27.3672 3.1283e-09 27.5 0C27.6328 -3.1283e-09 27.7601 0.0527449 27.854 0.146631L31.854 4.14663C31.9006 4.19308 31.9375 4.24825 31.9627 4.309C31.9879 4.36974 32.0009 4.43486 32.0009 4.50063C32.0009 4.5664 31.9879 4.63152 31.9627 4.69226C31.9375 4.75301 31.9006 4.80819 31.854 4.85463L27.854 8.85463C27.7601 8.94852 27.6328 9.00126 27.5 9.00126C27.3672 9.00126 27.2399 8.94852 27.146 8.85463C27.0521 8.76075 26.9994 8.63341 26.9994 8.50063C26.9994 8.36786 27.0521 8.24052 27.146 8.14663L30.293 5.00063H0.5C0.367392 5.00063 0.240214 4.94795 0.146446 4.85419C0.052678 4.76042 0 4.63324 0 4.50063Z" fill="white"/>
</svg>
