<svg width="99" height="32" viewBox="0 0 99 32" fill="none" xmlns="http://www.w3.org/2000/svg">
<path d="M9.33871 13.2013H0.869536L0.679688 13.0125V0.18879L0.869536 0H3.12677L3.31522 0.18879V10.747L3.50368 10.9344H9.33871L9.52577 11.1232V13.0125L9.33871 13.2013Z" fill="white"/>
<path d="M21.7586 13.201H20.0653L19.8768 13.0122L18.936 10.5621L18.5591 10.3733H13.8547L13.4778 10.5621L12.537 13.0122L12.3485 13.201H10.6552L10.4668 13.0122V11.1271L14.7942 0.192696L14.9827 0.00390625H17.4284L17.6168 0.192696L21.9442 11.1271V13.0122L21.7586 13.201ZM16.3004 3.40491H16.1134L14.4201 7.92186L14.6072 8.11065H17.8122L17.9993 7.92186L16.3004 3.40491Z" fill="white"/>
<path d="M37.475 2.26685H31.64L31.4515 2.45423V5.28324L31.64 5.47203H37.0981L37.2866 5.65942V7.54589L37.0981 7.74027H31.64L31.4515 7.92906V13.0207L31.2631 13.2081H29.0058L28.8174 13.0207V0.188788L29.0058 0H37.475L37.6621 0.188788V2.07386L37.475 2.26685Z" fill="white"/>
<path d="M48.9535 13.2013H40.1089L39.9204 13.0139V0.18879L40.1089 0H48.9535L49.1434 0.18879V2.07389L48.9535 2.26268H42.7444L42.5559 2.45007V5.09032L42.7444 5.27911H48.578L48.7665 5.4679V7.353L48.578 7.54179H42.7444L42.5559 7.74037V10.7582L42.7444 10.9456H48.9535L49.1434 11.1344V13.0209L48.9535 13.2013Z" fill="white"/>
<path d="M59.8676 7.74027V7.92906L62.3133 11.1342V13.0207L62.1248 13.2081H60.9969L60.62 13.0207L56.851 8.11785L56.4783 7.92207H54.5979L54.4095 8.11086V13.0137L54.221 13.2011H51.9638L51.7739 13.0137V0.188788L51.9638 0H58.1743C60.8085 0 62.6902 1.32011 62.6902 3.95894C62.6902 6.037 61.3724 7.35711 59.8676 7.74027ZM58.1743 2.27384H54.5979L54.4095 2.46123V5.47902L54.5979 5.66641H58.1743C59.3036 5.66641 60.0561 5.29024 60.0561 3.97012C60.0561 2.65001 59.3036 2.26685 58.1743 2.26685V2.27384Z" fill="white"/>
<path d="M67.3956 13.2013H65.1342L64.9443 13.0139V0.18879L65.1342 0H67.3956L67.584 0.18879V13.0097L67.3956 13.2013Z" fill="white"/>
<path d="M80.7574 13.2013H79.0641L78.8757 13.0139L77.9348 10.5624L77.5579 10.3736H72.8536L72.4767 10.5624L71.5358 13.0139L71.3487 13.2013H69.6541L69.4614 13.0139V11.1274L73.7888 0.18879L73.9773 0H76.4244L76.6114 0.18879L80.9389 11.1232V13.0097L80.7574 13.2013ZM75.3007 3.4052H75.1108L73.4175 7.92216L73.606 8.11095H76.8055L76.9995 7.92216L75.3007 3.4052Z" fill="white"/>
<path d="M5.0099 31.2029H0.869536L0.679688 31.0141V18.1946L0.869536 18.0059H5.0099C9.71422 18.0059 11.4075 20.4573 11.4075 24.6037C11.4075 28.75 9.71561 31.2029 5.0099 31.2029ZM5.19695 20.2685H3.50368L3.31522 20.4573V28.7528L3.50368 28.9402H5.19695C7.83249 28.9402 8.77335 27.6215 8.77335 24.6051C8.77335 21.5886 7.83249 20.2685 5.19695 20.2685Z" fill="white"/>
<path d="M22.6958 31.2029H13.8525L13.6641 31.0141V18.1946L13.8525 18.0059H22.6958L22.8829 18.1946V20.0797L22.6958 20.2685H16.4839L16.2954 20.4573V23.0962L16.4839 23.2863H22.3175L22.506 23.4723V25.3616L22.3175 25.5504H16.4867L16.2982 25.7378V28.7556L16.4867 28.943H22.6958L22.8829 29.1318V31.0169L22.6958 31.2029Z" fill="white"/>
<path d="M33.1462 31.2353H29.0058L28.8174 31.0465V18.2298L29.0058 18.041H33.1462C37.8505 18.041 39.5452 20.4911 39.5452 24.6403C39.5452 28.7894 37.8505 31.2353 33.1462 31.2353ZM33.3346 20.2995H31.64L31.4515 20.4869V28.7839L31.64 28.9712H33.3346C35.9688 28.9712 36.9096 27.6511 36.9096 24.6361C36.9096 21.621 35.9688 20.2967 33.3346 20.2967V20.2995Z" fill="white"/>
<path d="M44.2488 31.2353H41.9902L41.8018 31.0465V18.2298L41.9902 18.041H44.2488L44.4359 18.2298V31.0507L44.2488 31.2353Z" fill="white"/>
<path d="M52.2462 31.9991C48.4772 31.9991 46.7881 30.114 46.7881 27.6639L46.9765 27.4751H49.2352L49.4236 27.6639C49.4236 28.984 50.176 29.7378 52.4347 29.7378C54.1279 29.7378 55.0688 29.1784 55.0688 28.0415C55.0688 26.7213 54.3164 26.3452 51.6823 25.9676C49.0481 25.59 46.9765 24.6489 46.9765 22.0086C46.9765 20.1221 48.4814 18.4258 52.0592 18.4258C55.637 18.4258 57.139 20.1221 57.139 22.3862L56.9519 22.5736H54.6919L54.5049 22.3862C54.5049 21.2534 53.9465 20.6885 51.8693 20.6885C50.176 20.6885 49.6107 21.2478 49.6107 22.0086C49.6107 23.1399 50.3645 23.5175 52.9986 23.8937C55.6328 24.2699 57.703 25.4012 57.703 28.0415C57.703 30.114 56.1981 31.9991 52.2462 31.9991Z" fill="white"/>
<path d="M68.9026 31.2353H60.0551L59.8667 31.0465V18.2298L60.0551 18.041H68.9026L69.0911 18.2298V20.1149L68.9026 20.2967H62.6907L62.5022 20.4841V23.1244L62.6907 23.3131H68.523L68.7128 23.5019V25.387L68.523 25.5758H62.6907L62.5022 25.7646V28.7811L62.6907 28.9684H68.9026L69.0911 29.1572V31.0437L68.9026 31.2353Z" fill="white"/>
<path d="M71.9145 18.032H74.5486L74.9255 18.2208L80.0053 26.8911H80.1938V18.2278L80.3836 18.039H82.6395L82.8293 18.2278V31.0486L82.6395 31.2332H80.0053L79.6298 31.0444L74.5486 22.3741H74.3602V31.0444L74.1717 31.2332H71.9145L71.7246 31.0444V18.2278L71.9145 18.032ZM75.8664 15.9581C75.4895 15.9581 75.308 16.1469 75.308 16.7119L75.1195 16.9007H74.1787L73.9916 16.7119C73.9916 15.2044 74.9325 14.4492 76.0618 14.4492C77.5666 14.4492 77.9421 15.7693 78.6973 15.7693C79.0715 15.7693 79.2557 15.5805 79.2557 15.0156L79.4442 14.8268H80.3864L80.5735 15.0156C80.5735 16.5231 79.6326 17.2782 78.5033 17.2782C77.0013 17.2782 76.6188 15.9581 75.8664 15.9581Z" fill="white"/>
<path d="M91.4849 31.4185C87.533 31.4185 85.0859 28.5908 85.0859 24.6318C85.0859 20.6728 87.533 17.8438 91.4849 17.8438C95.4368 17.8438 97.8839 20.6714 97.8839 24.6318C97.8839 28.5922 95.4382 31.4185 91.4849 31.4185ZM91.4849 20.1064C89.0392 20.1064 87.7159 21.9916 87.7159 24.6318C87.7159 27.2721 89.0337 29.1558 91.4849 29.1558C93.9362 29.1558 95.254 27.2707 95.254 24.6318C95.254 21.993 93.932 20.1064 91.4849 20.1064Z" fill="white"/>
<path d="M87.3068 5.58013H86.8224V1.98543L85.2352 4.66397H84.9086L83.299 1.97844L83.3116 5.58013H82.8286V0.933594H83.2027L85.0719 4.07651L86.9397 0.933594H87.3082L87.3068 5.58013Z" fill="white"/>
<path d="M90.9059 0.933594C92.3381 0.933594 93.3474 1.88332 93.3474 3.22329C93.3474 4.60942 92.3381 5.58013 90.9059 5.58013H89.2964V0.933594H90.9059ZM90.9059 5.12974C92.045 5.12974 92.8491 4.33807 92.8491 3.2177C92.8491 2.14488 92.045 1.37279 90.9059 1.37279H89.7808V5.12974H90.9059Z" fill="white"/>
<path d="M95.5855 3.04565H98.0465V3.49604H95.5855V5.13534H98.3201V5.58013H95.1011V0.933594H98.3201V1.37838H95.5855V3.04565Z" fill="white"/>
<path d="M82.89 11.3518L84.3837 9.9126C84.9072 9.39789 85.0649 9.15032 85.0649 8.79366C85.0649 8.34189 84.6824 8.0146 84.1631 8.0146C83.7751 8.0146 83.4763 8.15447 83.0701 8.49994L82.8286 8.21181C83.1881 7.8614 83.6673 7.66135 84.1687 7.65234C84.9295 7.65234 85.4711 8.1209 85.4711 8.77128C85.4711 9.23984 85.3022 9.53356 84.6545 10.149L83.454 11.2959H85.5479V11.6581H82.8956L82.89 11.3518Z" fill="white"/>
<path d="M87.5649 9.67878C87.5649 8.4815 88.2308 7.64648 89.1717 7.64648C90.1125 7.64648 90.784 8.4857 90.784 9.67878C90.784 10.8719 90.1181 11.7111 89.1717 11.7111C88.2252 11.7111 87.5649 10.8761 87.5649 9.67878ZM90.3722 9.67878C90.3722 8.66893 89.9045 8.01294 89.1717 8.01294C88.4388 8.01294 87.9767 8.66893 87.9767 9.67878C87.9767 10.6886 88.4444 11.339 89.1717 11.339C89.899 11.339 90.3722 10.69 90.3722 9.67878Z" fill="white"/>
<path d="M92.6639 11.3518L94.1562 9.9126C94.681 9.39789 94.8388 9.15032 94.8388 8.79366C94.8388 8.34189 94.4549 8.0146 93.937 8.0146C93.5475 8.0146 93.2488 8.15447 92.844 8.49994L92.6011 8.21181C92.9612 7.86155 93.4408 7.66156 93.9426 7.65234C94.7034 7.65234 95.2436 8.1209 95.2436 8.77128C95.2436 9.23984 95.0747 9.53356 94.427 10.149L93.2265 11.2959H95.3204V11.6581H92.6681L92.6639 11.3518Z" fill="white"/>
<path d="M98.3205 11.6572H97.9018V8.13812L97.2373 8.43184V8.0528L98.0483 7.70312H98.3136L98.3205 11.6572Z" fill="white"/>
</svg>
