<svg width="25" height="25" viewBox="0 0 25 25" fill="none" xmlns="http://www.w3.org/2000/svg">
<path d="M12.3531 2.50948C15.6075 2.50948 15.9921 2.50948 17.277 2.57524C18.0418 2.57976 18.8001 2.71641 19.5186 2.97916C20.0465 3.17997 20.5259 3.49058 20.9252 3.89052C21.3245 4.29045 21.6347 4.77063 21.8352 5.29938C22.106 6.02372 22.2488 6.78979 22.2572 7.56323C22.3135 8.85015 22.3229 9.23529 22.3229 12.4949C22.3229 15.7544 22.3229 16.149 22.2572 17.4359C22.2477 18.2092 22.1049 18.9751 21.8352 19.6997C21.6336 20.2348 21.3129 20.7167 20.8973 21.1088C20.5023 21.5209 20.0221 21.8415 19.4904 22.0481C18.7672 22.3194 18.0023 22.4625 17.2301 22.4708C15.9452 22.5272 15.5607 22.5366 12.3062 22.5366C9.05168 22.5366 8.65777 22.5366 7.37285 22.4708C6.60062 22.4625 5.83575 22.3194 5.11253 22.0481C4.58461 21.8473 4.10518 21.5367 3.70587 21.1368C3.30656 20.7368 2.99643 20.2567 2.79594 19.7279C2.52616 19.0033 2.38338 18.2374 2.37389 17.4641C2.31761 16.1771 2.30823 15.792 2.30823 12.523C2.30823 9.25407 2.30823 8.87833 2.37389 7.59141C2.38225 6.81797 2.52506 6.0519 2.79594 5.32756C3.00225 4.795 3.32236 4.31409 3.73383 3.91852C4.1253 3.50226 4.60646 3.18098 5.14067 2.97916C5.86388 2.70787 6.62876 2.56482 7.40099 2.55645C8.6859 2.50009 9.07043 2.49069 12.3343 2.49069L12.3531 2.50948ZM12.3343 0.283203C9.01416 0.283203 8.58273 0.283201 7.29782 0.35835C6.28719 0.375141 5.28729 0.569074 4.34346 0.931359C3.53442 1.24575 2.79966 1.72553 2.18603 2.34012C1.5724 2.95471 1.09336 3.69061 0.779465 4.50092C0.417745 5.44623 0.224122 6.44768 0.207357 7.4599C0.151084 8.76561 0.132324 9.17893 0.132324 12.4949C0.132324 15.8108 0.132326 16.2523 0.207357 17.5392C0.224122 18.5514 0.417745 19.5529 0.779465 20.4982C1.09336 21.3085 1.5724 22.0444 2.18603 22.659C2.79966 23.2736 3.53442 23.7534 4.34346 24.0677C5.28729 24.43 6.28719 24.624 7.29782 24.6408C8.60149 24.6971 9.01416 24.7159 12.3343 24.7159C15.6544 24.7159 16.0859 24.7159 17.3614 24.6408C18.372 24.624 19.3719 24.43 20.3158 24.0677C21.1248 23.7534 21.8596 23.2736 22.4732 22.659C23.0868 22.0444 23.5659 21.3085 23.8798 20.4982C24.2415 19.5529 24.4351 18.5514 24.4519 17.5392C24.5081 16.2335 24.5269 15.8202 24.5269 12.4949C24.5269 9.16953 24.5269 8.73743 24.4519 7.4599C24.4351 6.44768 24.2415 5.44623 23.8798 4.50092C23.5659 3.69061 23.0868 2.95471 22.4732 2.34012C21.8596 1.72553 21.1248 1.24575 20.3158 0.931359C19.3719 0.569074 18.372 0.375141 17.3614 0.35835C16.0577 0.301988 15.6451 0.283203 12.3343 0.283203Z" fill="white"/>
<path d="M12.3539 6.65832C11.1128 6.65087 9.89745 7.01278 8.86204 7.69813C7.82662 8.38347 7.01777 9.36138 6.5381 10.5078C6.05843 11.6542 5.92954 12.9175 6.16779 14.1374C6.40604 15.3573 7.00069 16.4788 7.87631 17.3597C8.75192 18.2407 9.86904 18.8413 11.086 19.0854C12.3029 19.3295 13.5648 19.2061 14.7117 18.7309C15.8585 18.2556 16.8385 17.45 17.5275 16.4161C18.2164 15.3822 18.5833 14.1666 18.5814 12.9236C18.5789 11.2627 17.9191 9.67055 16.7464 8.49612C15.5738 7.32169 13.9841 6.6608 12.3257 6.65832H12.3539ZM12.3257 16.9909C11.5203 16.9927 10.7324 16.7552 10.0618 16.3084C9.39116 15.8616 8.86798 15.2255 8.55846 14.4808C8.24894 13.736 8.167 12.9161 8.323 12.1247C8.479 11.3332 8.86592 10.606 9.43481 10.0349C10.0037 9.46384 10.7289 9.07464 11.5188 8.91658C12.3086 8.75851 13.1275 8.8387 13.8719 9.14697C14.6162 9.45525 15.2524 9.97776 15.7001 10.6484C16.1478 11.319 16.3868 12.1075 16.3868 12.9142C16.3868 13.9938 15.9592 15.0293 15.1979 15.7935C14.4366 16.5578 13.4036 16.9884 12.3257 16.9909" fill="white"/>
<path d="M20.3247 5.99461C20.3247 6.28443 20.2389 6.56773 20.0781 6.8087C19.9173 7.04967 19.6888 7.23749 19.4215 7.34839C19.1541 7.4593 18.8599 7.48832 18.5761 7.43178C18.2923 7.37524 18.0316 7.23568 17.827 7.03075C17.6224 6.82582 17.483 6.56473 17.4266 6.28048C17.3701 5.99624 17.3991 5.70161 17.5098 5.43386C17.6206 5.16611 17.8081 4.93726 18.0487 4.77625C18.2893 4.61523 18.5722 4.5293 18.8616 4.5293C19.2496 4.5293 19.6217 4.68368 19.8961 4.95848C20.1705 5.23328 20.3247 5.60599 20.3247 5.99461" fill="white"/>
</svg>
