<svg width="27" height="25" viewBox="0 0 27 25" fill="none" xmlns="http://www.w3.org/2000/svg">
<path d="M6.19645 2.72377C6.19097 3.25576 6.02819 3.77418 5.72864 4.21385C5.4291 4.65353 5.0062 4.99481 4.51313 5.19461C4.02005 5.3944 3.47886 5.44382 2.95775 5.33668C2.43664 5.22954 1.9589 4.9706 1.58464 4.59248C1.21039 4.21437 0.956368 3.73392 0.854578 3.21173C0.752789 2.68954 0.807754 2.14894 1.01259 1.65794C1.21743 1.16694 1.563 0.747529 2.00572 0.452505C2.44844 0.157482 2.96852 2.82725e-05 3.50054 0C3.85639 0.00182026 4.20842 0.0737549 4.53649 0.211621C4.86457 0.349488 5.16227 0.55056 5.41261 0.803483C5.66295 1.05641 5.86103 1.3562 5.99552 1.68568C6.13001 2.01515 6.19828 2.3679 6.19645 2.72377ZM6.19645 7.58758H0.749023V25H6.19645V7.58758ZM14.8817 7.58758H9.47599V25H14.8817V15.8561C14.8817 10.7769 21.4409 10.36 21.4409 15.8561V25H26.8674V14.0078C26.8674 5.4336 17.1399 5.74623 14.8817 9.96385V7.58758Z" fill="white"/>
</svg>
