<svg width="48" height="32" viewBox="0 0 48 32" fill="none" xmlns="http://www.w3.org/2000/svg">
<g clip-path="url(#clip0_1685_5368)">
<path d="M0 0H2.57491V14.8737H12.4479V17.1532H0V0Z" fill="white"/>
<path d="M12.4478 0H37.7852V2.25268H15.0197V7.52187H37.7852V9.72681H15.0197V17.1532H12.4478V0Z" fill="white"/>
<path d="M12.4478 14.8496H18.5016C23.6694 14.8496 27.5422 18.4987 27.5422 23.4486C27.5422 28.3478 23.6962 31.9998 18.5016 31.9998H12.4478V14.8496ZM15.0197 17.153V29.6845H18.5494C22.1298 29.6845 24.8957 26.9663 24.8957 23.4366C24.9067 22.6026 24.7497 21.7748 24.434 21.0027C24.1183 20.2306 23.6504 19.5299 23.0582 18.9424C22.466 18.3549 21.7616 17.8927 20.987 17.5832C20.2124 17.2738 19.3834 17.1234 18.5494 17.1411L15.0197 17.153Z" fill="white"/>
<path d="M41.6552 7.53125H37.7764V18.6992H41.6552C45.0028 18.6992 47.5241 16.3122 47.5241 13.1316C47.5241 9.95102 45.0028 7.53125 41.6552 7.53125ZM45.2356 13.1316C45.2369 13.5963 45.1453 14.0564 44.9663 14.4852C44.7872 14.914 44.5243 15.3026 44.193 15.6284C43.8617 15.9541 43.4687 16.2104 43.037 16.3821C42.6052 16.5539 42.1436 16.6376 41.679 16.6285H40.0141V9.60491H41.676C42.1447 9.5911 42.6113 9.67258 43.0476 9.84443C43.4839 10.0163 43.8807 10.2749 44.2141 10.6046C44.5475 10.9344 44.8104 11.3284 44.987 11.7627C45.1636 12.1971 45.2502 12.6628 45.2415 13.1316H45.2356Z" fill="white"/>
</g>
<defs>
<clipPath id="clip0_1685_5368">
<rect width="47.5241" height="32" fill="white"/>
</clipPath>
</defs>
</svg>
